<svg width="0" height="0" class="hidden">
    <symbol fill="none" xmlns="http://www.w3.org/2000/svg" viewBox="0 0 34 34" id="close">
        <path fill-rule="evenodd" clip-rule="evenodd" d="M6.24938 6.2487C6.6399 5.85818 7.27306 5.85818 7.66359 6.2487L13.2288 11.8139C13.6193 12.2044 13.6193 12.8376 13.2288 13.2281C12.7081 13.7489 12.1304 14.8905 12.1304 15.9993C12.1304 17.1116 12.538 18.0768 13.2233 18.765C13.2252 18.7668 13.227 18.7686 13.2288 18.7704C13.2306 18.7723 13.2324 18.7741 13.2342 18.7759C13.9225 19.4612 14.8877 19.8689 16 19.8689C17.1087 19.8689 18.2504 19.2912 18.7711 18.7704C19.1616 18.3799 19.7948 18.3799 20.1853 18.7704L25.7505 24.3357C26.1411 24.7262 26.1411 25.3593 25.7505 25.7499C25.36 26.1404 24.7269 26.1404 24.3363 25.7499L19.4007 20.8143C18.4934 21.4108 17.2559 21.8689 16 21.8689C14.7079 21.8689 13.536 21.4884 12.5851 20.8284L7.66359 25.7499C7.27306 26.1404 6.6399 26.1404 6.24938 25.7499C5.85885 25.3593 5.85885 24.7262 6.24938 24.3357L11.1709 19.4142C10.5108 18.4633 10.1304 17.2914 10.1304 15.9993C10.1304 14.7433 10.5885 13.5059 11.185 12.5985L6.24938 7.66292C5.85885 7.27239 5.85885 6.63923 6.24938 6.2487ZM25.7505 6.2487C26.1411 6.63923 26.1411 7.27239 25.7505 7.66292L20.1853 13.2281C19.7948 13.6187 19.1616 13.6187 18.7711 13.2281C18.3806 12.8376 18.3806 12.2044 18.7711 11.8139L24.3363 6.2487C24.7269 5.85818 25.36 5.85818 25.7505 6.2487ZM12.913 15.9993C12.913 14.2944 14.2951 12.9123 16 12.9123C17.7048 12.9123 19.0869 14.2944 19.0869 15.9993C19.0869 17.7042 17.7048 19.0862 16 19.0862C14.2951 19.0862 12.913 17.7042 12.913 15.9993ZM16 14.9123C15.3997 14.9123 14.913 15.399 14.913 15.9993C14.913 16.5996 15.3997 17.0862 16 17.0862C16.6003 17.0862 17.0869 16.5996 17.0869 15.9993C17.0869 15.399 16.6003 14.9123 16 14.9123Z" fill=""/>
   </symbol>
   <symbol fill="none" xmlns="http://www.w3.org/2000/svg" viewBox="0 0 23 23" id="ic-wa">
        <path fill-rule="evenodd" clip-rule="evenodd" d="M11.0005 0C4.92123 0 0.0029373 4.987 0.000496366 10.9996L0.000496307 11C0.000496307 12.8219 0.601534 14.5983 1.42102 16.1182L0.04267 20.7127C-0.0630402 21.065 0.0332573 21.447 0.29339 21.7071C0.553522 21.9672 0.935477 22.0635 1.28784 21.9578L5.89376 20.576C7.30979 21.3152 8.89066 21.9546 10.9789 21.9998C17.0892 22.1318 22.0005 17.055 22.0005 11C22.0005 4.92487 17.0756 0 11.0005 0ZM11.0005 2C6.03421 2 2.00271 6.08323 2.0005 11V11.0004C2.00059 12.5161 2.55115 14.092 3.36586 15.4989C3.50416 15.7377 3.53762 16.023 3.45832 16.2873L2.49197 19.5085L5.71315 18.5422C5.96803 18.4657 6.24288 18.494 6.47686 18.6207C7.87898 19.3804 9.21755 19.9612 11.0221 20.0002C15.9549 20.1068 20.0005 15.9906 20.0005 11C20.0005 6.02944 15.9711 2 11.0005 2ZM10.5529 14.3726C11.6337 15.0652 14.3042 16.7552 15.5613 15.6155C16.1021 15.1251 16.1583 13.3748 15.6472 12.7788C15.2386 12.3021 13.7595 11.9222 13.0956 12.0621C12.7285 12.1395 12.4479 12.4431 12.1894 12.7229C12.1191 12.7989 12.0505 12.8732 11.9822 12.9407C10.7483 12.2474 9.7267 11.2378 9.02511 10.0184C9.09339 9.95095 9.16855 9.88314 9.24552 9.81371C9.52851 9.55843 9.83579 9.28123 9.91415 8.91813C10.0554 8.26375 9.67106 6.80638 9.19453 6.40139C8.5683 5.86918 6.93399 5.83645 6.33653 6.48326C5.29122 7.6149 6.96088 10.4817 7.59586 11.4503C8.35254 12.6271 9.36213 13.6248 10.5529 14.3726Z" fill=""/>
   </symbol>
   <symbol fill="none" xmlns="http://www.w3.org/2000/svg" viewBox="0 0 23 23" id="ic-tg">
        <path d="M11.3985 0.00198513C9.47347 0.0279851 5.33147 0.343985 3.01447 2.46699C1.29447 4.17699 0.693469 6.69798 0.623469 9.81998C0.563469 12.93 0.493469 18.77 6.12347 20.361V22.781C6.12347 22.781 6.08547 23.751 6.72547 23.951C7.51547 24.201 7.96547 23.452 8.71547 22.652L10.1155 21.072C13.9655 21.392 16.9155 20.653 17.2555 20.543C18.0355 20.293 22.4365 19.732 23.1565 13.891C23.8965 7.85998 22.7965 4.05999 20.8165 2.33999L20.8065 2.33799C20.2065 1.78799 17.8065 0.0379851 12.4365 0.0179851C12.4365 0.0179851 12.0405 -0.00701487 11.3985 0.00198513ZM11.4655 1.69899C12.0105 1.69599 12.3455 1.71899 12.3455 1.71899C16.8855 1.72899 19.0565 3.09899 19.5665 3.55899C21.2365 4.98799 22.0945 8.41499 21.4665 13.451C20.8665 18.331 17.2965 18.641 16.6365 18.851C16.3565 18.941 13.7565 19.581 10.4845 19.371C10.4845 19.371 8.04547 22.312 7.28547 23.072C7.16547 23.202 7.02547 23.242 6.93547 23.222C6.80547 23.192 6.76547 23.032 6.77547 22.812L6.79547 18.793C2.02447 17.473 2.30447 12.491 2.35447 9.89098C2.41447 7.29098 2.90447 5.15899 4.35447 3.71899C6.31147 1.94899 9.82947 1.70899 11.4645 1.69899H11.4655ZM11.8255 4.29899C11.7861 4.29885 11.7471 4.30649 11.7107 4.32146C11.6743 4.33642 11.6413 4.35843 11.6134 4.38621C11.5855 4.41398 11.5634 4.44699 11.5483 4.48333C11.5332 4.51967 11.5255 4.55864 11.5255 4.59799C11.5255 4.67755 11.5571 4.75386 11.6133 4.81012C11.6696 4.86638 11.7459 4.89798 11.8255 4.89798C12.5689 4.8838 13.3078 5.01701 13.9995 5.28991C14.6912 5.56281 15.322 5.97 15.8555 6.48799C16.9455 7.54799 17.4765 8.96799 17.4965 10.828C17.4965 10.8674 17.5042 10.9064 17.5193 10.9428C17.5344 10.9792 17.5565 11.0123 17.5843 11.0401C17.6122 11.068 17.6453 11.0901 17.6817 11.1051C17.7181 11.1202 17.7571 11.128 17.7965 11.128V11.119C17.876 11.119 17.9523 11.0874 18.0086 11.0311C18.0649 10.9749 18.0965 10.8986 18.0965 10.819C18.1336 9.94427 17.9922 9.07116 17.681 8.25282C17.3699 7.43449 16.8954 6.68806 16.2865 6.05899C15.0965 4.89899 13.5955 4.29899 11.8255 4.29899ZM7.87147 4.98899C7.65881 4.95868 7.44214 5.00096 7.25647 5.10899H7.24447C6.83447 5.34899 6.45647 5.64898 6.09647 6.04899C5.82647 6.36899 5.67547 6.68799 5.63547 6.99799C5.61194 7.1798 5.62901 7.36457 5.68547 7.53899L5.70547 7.54899C6.0137 8.45513 6.41589 9.32654 6.90547 10.149C7.54008 11.3008 8.31977 12.3665 9.22547 13.32L9.25547 13.36L9.29547 13.39L9.32547 13.42L9.35547 13.45C10.3127 14.358 11.3812 15.1409 12.5355 15.78C13.8555 16.5 14.6575 16.84 15.1375 16.98V16.99C15.2775 17.03 15.4055 17.05 15.5355 17.05C15.9452 17.0201 16.3331 16.8539 16.6375 16.578C17.0275 16.228 17.3375 15.84 17.5675 15.43V15.42C17.7975 14.99 17.7175 14.579 17.3875 14.299C16.7224 13.7172 16.0024 13.2014 15.2375 12.759C14.7275 12.479 14.2075 12.649 13.9975 12.929L13.5475 13.498C13.3175 13.778 12.8975 13.738 12.8975 13.738L12.8855 13.748C9.76547 12.948 8.93547 9.78898 8.93547 9.78898C8.93547 9.78898 8.89547 9.35898 9.18547 9.13898L9.74547 8.68898C10.0155 8.46898 10.2055 7.94899 9.91547 7.43899C9.47362 6.67372 8.95782 5.95361 8.37547 5.28899C8.24879 5.13188 8.06996 5.02543 7.87147 4.98899ZM12.3445 5.87899C12.2649 5.87925 12.1887 5.91111 12.1326 5.96756C12.0766 6.02401 12.0452 6.10042 12.0455 6.17999C12.0457 6.25955 12.0776 6.33575 12.134 6.39182C12.1905 6.4479 12.2669 6.47925 12.3465 6.47899C13.3472 6.49636 14.3002 6.90993 14.9965 7.62899C15.3106 7.9755 15.5521 8.38146 15.7067 8.82287C15.8612 9.26429 15.9258 9.73221 15.8965 10.199C15.8967 10.2784 15.9285 10.3544 15.9847 10.4105C16.0409 10.4665 16.1171 10.498 16.1965 10.498L16.2065 10.51C16.2459 10.51 16.285 10.5022 16.3215 10.4871C16.358 10.4719 16.3911 10.4497 16.419 10.4218C16.4468 10.3938 16.4689 10.3606 16.4839 10.3241C16.4989 10.2876 16.5066 10.2485 16.5065 10.209C16.5365 9.01898 16.1665 8.01898 15.4365 7.21899C14.7065 6.41898 13.6865 5.96899 12.3865 5.87899C12.3725 5.878 12.3585 5.878 12.3445 5.87899ZM12.8345 7.49799C12.7943 7.4968 12.7544 7.50354 12.7169 7.5178C12.6794 7.53206 12.645 7.55357 12.6158 7.5811C12.5866 7.60863 12.5631 7.64165 12.5467 7.67826C12.5302 7.71487 12.5212 7.75437 12.52 7.79449C12.5188 7.8346 12.5255 7.87456 12.5398 7.91208C12.554 7.9496 12.5756 7.98394 12.6031 8.01314C12.6306 8.04235 12.6636 8.06584 12.7002 8.08229C12.7369 8.09873 12.7764 8.1078 12.8165 8.10898C13.8065 8.15899 14.2865 8.65899 14.3465 9.68898C14.3491 9.7668 14.3818 9.84056 14.4378 9.89468C14.4938 9.9488 14.5686 9.97903 14.6465 9.97898H14.6565C14.6968 9.97773 14.7364 9.96837 14.773 9.95147C14.8096 9.93456 14.8424 9.91045 14.8694 9.88059C14.8965 9.85072 14.9173 9.8157 14.9305 9.77763C14.9438 9.73955 14.9492 9.6992 14.9465 9.65899C14.8765 8.31898 14.1465 7.56799 12.8465 7.49799C12.8425 7.49791 12.8385 7.49791 12.8345 7.49799Z" fill=""/>
   </symbol>
   <symbol fill="none" xmlns="http://www.w3.org/2000/svg" viewBox="0 0 23 23" id="ic-inst">
        <path fill-rule="evenodd" clip-rule="evenodd" d="M6.0005 2C3.79136 2 2.0005 3.79086 2.0005 6V16C2.0005 18.2091 3.79136 20 6.0005 20H16.0005C18.2096 20 20.0005 18.2091 20.0005 16V6C20.0005 3.79086 18.2096 2 16.0005 2H6.0005ZM0.000495911 6C0.000495911 2.68629 2.68679 0 6.0005 0L16.0005 0C19.3142 0 22.0005 2.68629 22.0005 6V16C22.0005 19.3137 19.3142 22 16.0005 22H6.0005C2.68679 22 0.000495911 19.3137 0.000495911 16V6ZM11.4838 7.98918C10.8596 7.89663 10.2222 8.00324 9.66205 8.29387C9.10195 8.58449 8.64775 9.04432 8.36406 9.60796C8.08036 10.1716 7.98161 10.8103 8.08186 11.4333C8.18211 12.0563 8.47625 12.6319 8.92244 13.0781C9.36863 13.5242 9.94416 13.8184 10.5672 13.9186C11.1901 14.0189 11.8289 13.9201 12.3925 13.6364C12.9562 13.3527 13.416 12.8985 13.7066 12.3384C13.9973 11.7783 14.1039 11.1409 14.0113 10.5167C13.9169 9.87999 13.6202 9.29055 13.1651 8.83541C12.71 8.38028 12.1205 8.0836 11.4838 7.98918ZM8.74091 6.51862C9.67441 6.03424 10.7369 5.85655 11.7772 6.01082C12.8383 6.16817 13.8207 6.66265 14.5793 7.4212C15.3379 8.17975 15.8323 9.16216 15.9897 10.2233C16.1439 11.2636 15.9663 12.3261 15.4819 13.2596C14.9975 14.1931 14.2311 14.9501 13.2917 15.4229C12.3523 15.8957 11.2877 16.0603 10.2494 15.8932C9.21109 15.7262 8.25188 15.2359 7.50823 14.4923C6.76458 13.7486 6.27434 12.7894 6.10726 11.7511C5.94018 10.7128 6.10476 9.64818 6.57759 8.70878C7.05041 7.76938 7.80741 7.00299 8.74091 6.51862ZM16.5005 4.5C15.9482 4.5 15.5005 4.94772 15.5005 5.5C15.5005 6.05228 15.9482 6.5 16.5005 6.5H16.5105C17.0628 6.5 17.5105 6.05228 17.5105 5.5C17.5105 4.94772 17.0628 4.5 16.5105 4.5H16.5005Z" fill=""/>
   </symbol>
   <symbol fill="none" xmlns="http://www.w3.org/2000/svg" viewBox="0 0 24 18" id="ic-yt">
        <path fill-rule="evenodd" clip-rule="evenodd" d="M12.0005 1C12.0005 0 12.0004 0 12.0004 0L12 0L11.999 0L11.995 1.90735e-06L11.9796 1.46031e-05L11.9206 0.000114739C11.869 0.000228763 11.7934 0.000456095 11.6968 0.000909448C11.5036 0.00181603 11.2261 0.00362682 10.8879 0.00724471C10.2119 0.0144762 9.29152 0.0289468 8.31579 0.0579413C7.34167 0.0868881 6.30439 0.130537 5.39712 0.196712C4.51782 0.260847 3.67578 0.351232 3.14213 0.493952L3.12826 0.497769C2.50211 0.674919 1.96852 0.962454 1.44405 1.50315C0.919577 2.04384 0.648423 2.58593 0.490421 3.21719C0.48501 3.23881 0.480324 3.2606 0.47637 3.28253C0.151061 5.08643 -0.0082339 6.91636 0.000480358 8.74933C-0.0107701 10.5961 0.148538 12.44 0.476377 14.2575C0.482235 14.29 0.489698 14.3222 0.498737 14.3539C0.672907 14.9655 0.951607 15.487 1.47521 16.0052C1.9988 16.5234 2.52323 16.7967 3.13658 16.9645L3.13657 16.9646L3.14213 16.966C3.67578 17.1088 4.51782 17.1992 5.39713 17.2633C6.30439 17.3295 7.34167 17.3731 8.31579 17.4021C9.29152 17.4311 10.2119 17.4455 10.8879 17.4528C11.2261 17.4564 11.5036 17.4582 11.6968 17.4591C11.7934 17.4595 11.869 17.4598 11.9206 17.4599L11.9796 17.46L11.995 17.46L11.999 17.46H12H12.0004C12.0004 17.46 12.0005 17.46 12.0005 16.46C12.0005 17.46 12.0006 17.46 12.0006 17.46H12.0009H12.002L12.006 17.46L12.0214 17.46L12.0804 17.4599C12.132 17.4598 12.2076 17.4595 12.3042 17.4591C12.4974 17.4582 12.7749 17.4564 13.1131 17.4528C13.7891 17.4455 14.7095 17.4311 15.6852 17.4021C16.6593 17.3731 17.6966 17.3295 18.6039 17.2633C19.4832 17.1992 20.3252 17.1088 20.8589 16.966L20.8727 16.9622C21.4989 16.7851 22.0325 16.4975 22.5569 15.9569C23.0814 15.4162 23.3526 14.8741 23.5106 14.2428C23.516 14.2212 23.5207 14.1994 23.5246 14.1774C23.8475 12.3869 24.0067 10.5707 24.0005 8.75133C24.0118 6.90432 23.8525 5.06021 23.5246 3.24249C23.5207 3.22057 23.516 3.19879 23.5106 3.17719C23.3526 2.54593 23.0814 2.00384 22.5569 1.46315C22.0325 0.922455 21.4989 0.634919 20.8727 0.457769C20.8611 0.454482 20.8494 0.451407 20.8377 0.448543C20.312 0.320168 19.4772 0.237978 18.5976 0.179398C17.6921 0.119094 16.6562 0.079282 15.6826 0.0528679C14.7076 0.0264141 13.7878 0.0132093 13.1121 0.00661021C12.7741 0.00330883 12.4968 0.00165659 12.3038 0.000829518C12.2072 0.000415921 12.1317 0.000208557 12.0802 0.000104606L12.0213 1.32918e-05L12.006 0L12.002 0L12.0009 0L12.0006 0C12.0006 0 12.0005 0 12.0005 1ZM12.0005 1L12.0005 2H12.0007H12.0015L12.005 2L12.0193 2.00001L12.0762 2.0001L12.2952 2.00081C12.4851 2.00162 12.7587 2.00325 13.0926 2.00651C13.7607 2.01304 14.6684 2.02609 15.6284 2.05213C16.5898 2.07822 17.5964 2.11716 18.4647 2.17498C19.3437 2.23352 20.0064 2.3073 20.3461 2.38734C20.6519 2.47591 20.8663 2.5927 21.1214 2.85566C21.373 3.11511 21.4837 3.33064 21.5627 3.6325C21.8647 5.31923 22.0113 7.03015 22.0005 8.74372H22.0005L22.0005 8.75359C22.0066 10.4414 21.86 12.1262 21.5627 13.7875C21.4837 14.0894 21.373 14.3049 21.1214 14.5643C20.8633 14.8304 20.6469 14.9468 20.3354 15.0357C20.0068 15.1223 19.3467 15.2038 18.4584 15.2686C17.5919 15.3318 16.5867 15.3744 15.6258 15.4029C14.6665 15.4314 13.7594 15.4457 13.0917 15.4529C12.758 15.4564 12.4845 15.4582 12.2948 15.4591C12.1999 15.4596 12.126 15.4598 12.076 15.4599L12.0192 15.46L12.005 15.46L12.0015 15.46H12.0007H12.0005H12.0003H11.9995L11.996 15.46L11.9818 15.46L11.925 15.4599C11.875 15.4598 11.8011 15.4596 11.7062 15.4591C11.5164 15.4582 11.243 15.4564 10.9093 15.4529C10.2416 15.4457 9.33447 15.4314 8.3752 15.4029C7.41432 15.3744 6.4091 15.3318 5.54262 15.2686C4.65059 15.2035 3.9888 15.1217 3.66152 15.0347C3.35407 14.9502 3.14092 14.8399 2.88207 14.5837C2.6351 14.3393 2.52133 14.1351 2.4353 13.8506C2.13531 12.1693 1.98975 10.4641 2.00048 8.75628H2.00054L2.00048 8.74506C1.99208 7.04439 2.13864 5.34651 2.43833 3.67248C2.51733 3.37063 2.62797 3.15511 2.87963 2.89566C3.13767 2.62965 3.35407 2.51322 3.66557 2.42427C3.99424 2.33765 4.65425 2.25621 5.54262 2.19141C6.4091 2.12821 7.41432 2.08561 8.3752 2.05706C9.33447 2.02855 10.2416 2.01427 10.9093 2.00713C11.243 2.00356 11.5164 2.00178 11.7062 2.00089C11.8011 2.00044 11.875 2.00022 11.925 2.00011L11.9818 2.00001L11.996 2L11.9995 2L12.0003 2H12.0005L12.0005 1ZM10.2448 4.61073C9.9353 4.4347 9.55549 4.43655 9.24768 4.61561C8.93987 4.79466 8.75049 5.1239 8.75049 5.48V12.02C8.75049 12.3761 8.93987 12.7053 9.24768 12.8844C9.55549 13.0634 9.9353 13.0653 10.2448 12.8893L15.9948 9.61926C16.3074 9.4415 16.5005 9.10959 16.5005 8.75C16.5005 8.39041 16.3074 8.0585 15.9948 7.88074L10.2448 4.61073ZM13.4776 8.75L10.7505 10.3009V7.19909L13.4776 8.75Z"/>
   </symbol>
   <symbol fill="none" xmlns="http://www.w3.org/2000/svg" viewBox="0 0 24 24" id="ic-glass">
    <path fill-rule="evenodd" clip-rule="evenodd" d="M5.50292 12.999C7.53273 12.9931 9.22321 14.8703 9.00617 16.8881C8.79491 18.7163 7.34407 20.005 5.50326 19.999C3.5688 19.9927 2.00802 18.433 2.00001 16.4989C2.00725 14.5651 3.56865 13.0046 5.50292 12.999ZM2.9806 9.21084L2.60692 11.8248C3.44612 11.3039 4.43603 11.0021 5.49709 10.999C8.34333 10.9907 10.7205 13.2613 10.9981 15.999L13.0074 15.999C13.296 13.2691 15.6592 11.0177 18.4989 11.0146C19.5866 11.0135 20.5936 11.3084 21.4423 11.8307C21.3419 11.187 21.2452 10.5847 21.1692 10.116C21.1224 9.82809 21.0835 9.5908 21.0563 9.42561L21.0247 9.23461L21.0164 9.18472L21.0143 9.17205L21.0138 9.1689L21.0137 9.16814L21.0136 9.16796L22 9.0034L21.0136 9.16791L21.0136 9.1678C20.7673 7.69 20.5321 6.77923 20.2642 6.13549C20.0102 5.52503 19.7169 5.13039 19.2929 4.70636C18.9352 4.34864 18.4149 4.15492 17.903 4.06394C17.6571 4.02022 17.438 4.00476 17.2823 4.00037C17.2051 3.99819 17.1454 3.99878 17.1078 3.99972C17.0891 4.00019 17.0761 4.00075 17.0693 4.00107L17.0667 4.00117L17.0652 4.00127L17.0644 4.00133C16.5153 4.03679 16.0403 3.62172 16.0024 3.07224C15.9644 2.52127 16.3802 2.04379 16.9312 2.00577L17 3.0034C16.9312 2.00577 16.9315 2.00575 16.9318 2.00573L16.9325 2.00568L16.934 2.00558L16.9376 2.00535L16.9468 2.00478L16.9734 2.00337C16.9946 2.00235 17.023 2.00122 17.0577 2.00035C17.1271 1.99861 17.2226 1.99789 17.3387 2.00116C17.5697 2.00768 17.8897 2.03021 18.2531 2.0948C18.9599 2.22044 19.9396 2.52464 20.7071 3.29214C21.2831 3.86811 21.7398 4.47554 22.1108 5.36716C22.4679 6.22549 22.7327 7.31679 22.9864 8.83898L22.9864 8.839L22.9864 8.83921L22.9866 8.84008L22.9871 8.84345L22.9893 8.85654L22.9978 8.90735L23.0297 9.10035C23.0571 9.26694 23.0963 9.50588 23.1433 9.79566C23.2374 10.375 23.3628 11.1586 23.4884 11.9741C23.6138 12.7886 23.7399 13.6394 23.835 14.3518C23.9209 14.9956 23.9919 15.5992 23.9994 15.9427C24.3043 19.1263 21.7049 21.9968 18.5007 21.999C15.9481 22.0007 13.8395 20.3696 13.1799 17.999L10.8218 17.999C10.1653 20.3719 8.05048 22.0073 5.49675 21.999C2.46174 21.9891 0.00989972 19.5373 1.22905e-05 16.5023L8.46706e-07 16.499C8.49529e-07 16.4666 0.000401396 16.4325 0.00117197 16.3969C0.00205698 16.3538 0.003436 16.3108 0.00530139 16.2679C0.0068796 16.2297 0.00879933 16.19 0.0110454 16.1491C-0.00321348 16.0548 -0.00411933 15.9569 0.0100698 15.8576L0.0632382 15.4857C0.15658 14.5151 0.338816 13.2023 0.510816 12.0421C0.636552 11.1939 0.762187 10.3935 0.856332 9.80555C0.903425 9.51143 0.942684 9.27016 0.970197 9.10225L1.00218 8.90791L1.01066 8.85677L1.01285 8.84355L1.01342 8.84013L1.01357 8.83924L1.01361 8.83899C1.01361 8.83899 1.01361 8.83899 1.01371 8.839C1.01372 8.83897 1.01372 8.83893 1.01373 8.8389L1.01363 8.83888C1.01441 8.83424 1.01521 8.8296 1.01605 8.82497C1.26901 7.31041 1.53324 6.22335 1.88924 5.36777C2.05371 4.97249 2.23503 4.63307 2.43611 4.32748C2.68912 3.94271 2.9731 3.61186 3.29298 3.29206C4.06717 2.51805 5.04571 2.21288 5.75531 2.08859C6.11905 2.02488 6.43874 2.00396 6.66957 1.99885C6.78564 1.99628 6.88106 1.99768 6.95049 1.99994C6.98525 2.00107 7.01365 2.00243 7.03502 2.00363L7.06179 2.00528L7.0711 2.00593L7.07472 2.00619L7.07626 2.00631L7.07697 2.00636C7.077 2.00637 7.07703 2.00637 7.07701 2.00697C7.0772 2.00699 7.07739 2.007 7.07759 2.00702L7.07763 2.00642C7.60644 2.04759 8.00703 2.49297 7.99996 3.01593C7.99972 3.03481 7.99895 3.05378 7.99763 3.07285C7.95972 3.62232 7.48473 4.03739 6.93566 4.00193L6.93484 4.00188L6.93481 4.00188L6.93069 4.00168C6.92396 4.00135 6.91092 4.0008 6.8922 4.00033C6.85465 3.99939 6.79487 3.9988 6.71768 4.00098C6.56198 4.00537 6.34292 4.02082 6.09697 4.06454C5.58511 4.15552 5.06483 4.34925 4.70711 4.70696C4.47278 4.94129 4.27838 5.16664 4.10846 5.42441C3.97291 5.63025 3.85277 5.8569 3.74059 6.12489C3.47428 6.76108 3.24097 7.65897 3.00329 9.10729C2.99757 9.14219 2.98999 9.17675 2.9806 9.21084ZM18.5011 13.0146C16.473 13.0168 14.7945 14.873 14.9941 16.8904C15.2123 18.7174 16.6582 20.0003 18.4993 19.999C20.5304 19.9976 22.2132 18.1307 22.0063 16.1111C21.7821 14.2877 20.3394 13.0127 18.5011 13.0146Z" fill="#00BDD6"/>
    </symbol>
   <symbol fill="none" xmlns="http://www.w3.org/2000/svg" viewBox="0 0 50 56" id="adv-1">
     <path d="M31 35L30.0151 35.1734C30.0788 35.535 30.3354 35.8326 30.6837 35.9487L31 35ZM19.0185 35L19.3325 35.9494C19.6832 35.8335 19.9415 35.5336 20.0041 35.1695L19.0185 35ZM38 17C38 16.4477 37.5523 16 37 16C36.4477 16 36 16.4477 36 17H38ZM30.2 30.4556L29.7993 29.5394L30.2 30.4556ZM48 55C48 55.5523 48.4477 56 49 56C49.5523 56 50 55.5523 50 55H48ZM19.8 30.4556L20.2007 29.5394L19.8 30.4556ZM37 37L37.3165 36.0514L37.3162 36.0513L37 37ZM12.9702 37L12.6563 36.0506L12.6537 36.0514L12.9702 37ZM-3.05176e-05 55C-3.05176e-05 55.5523 0.447685 56 0.999969 56C1.55225 56 1.99997 55.5523 1.99997 55H-3.05176e-05ZM44.3 39.8437L44.7719 38.9621L44.3 39.8437ZM5.69997 39.8437L5.22803 38.9621L5.69997 39.8437ZM19 55C19 55.5523 19.4477 56 20 56C20.5523 56 21 55.5523 21 55H19ZM39 55C39 55.5523 39.4477 56 40 56C40.5523 56 41 55.5523 41 55H39ZM31 55C31 55.5523 31.4477 56 32 56C32.5523 56 33 55.5523 33 55H31ZM39 18C39.5523 18 40 17.5523 40 17C40 16.4477 39.5523 16 39 16V18ZM17.9922 3.14206C18.0608 2.59405 17.6722 2.0942 17.1242 2.02561C16.5762 1.95703 16.0763 2.34567 16.0077 2.89368L17.9922 3.14206ZM19.65 13.9094C20.0783 13.5606 20.1427 12.9308 19.7939 12.5025C19.4451 12.0743 18.8152 12.0099 18.387 12.3587L19.65 13.9094ZM7.41846 21.2921C6.99024 21.6409 6.92583 22.2708 7.2746 22.699C7.62337 23.1272 8.25325 23.1916 8.68148 22.8429L7.41846 21.2921ZM13.9702 18.0601C13.9702 17.5078 13.5225 17.0601 12.9702 17.0601C12.418 17.0601 11.9702 17.5078 11.9702 18.0601H13.9702ZM21 19C21 18.4477 20.5523 18 20 18C19.4477 18 19 18.4477 19 19H21ZM19 20.3846C19 20.9369 19.4477 21.3846 20 21.3846C20.5523 21.3846 21 20.9369 21 20.3846H19ZM31 19C31 18.4477 30.5523 18 30 18C29.4477 18 29 18.4477 29 19H31ZM29 20.3846C29 20.9369 29.4477 21.3846 30 21.3846C30.5523 21.3846 31 20.9369 31 20.3846H29ZM20.6 24.2C20.1581 23.8686 19.5313 23.9582 19.2 24.4C18.8686 24.8418 18.9581 25.4686 19.4 25.8L20.6 24.2ZM30.6 25.8C31.0418 25.4686 31.1313 24.8418 30.8 24.4C30.4686 23.9582 29.8418 23.8686 29.4 24.2L30.6 25.8ZM33 34H31V36H33V34ZM19.0185 34H17V36H19.0185V34ZM40.95 24C40.95 26.4837 40.0474 29.019 38.5714 30.9202C37.095 32.822 35.1237 34 33 34V36C35.9065 36 38.4102 34.3893 40.1512 32.1467C41.8927 29.9035 42.95 26.9389 42.95 24H40.95ZM17 34C14.8763 34 12.9049 32.822 11.4285 30.9202C9.95256 29.019 9.04997 26.4837 9.04997 24H7.04997C7.04997 26.9389 8.10726 29.9035 9.84872 32.1467C11.5898 34.3893 14.0934 36 17 36V34ZM9.04997 17C9.04997 8.02418 16.9725 2 25 2V0C16.1193 0 7.04997 6.68405 7.04997 17H9.04997ZM25 32.5C26.8697 32.5 28.9619 32.0885 30.6007 31.3718L29.7993 29.5394C28.4343 30.1363 26.6178 30.5 25 30.5V32.5ZM29.2151 30.6289L30.0151 35.1734L31.9848 34.8266L31.1848 30.2822L29.2151 30.6289ZM48 47.943V55H50V47.943H48ZM19.3993 31.3718C21.038 32.0885 23.1302 32.5 25 32.5V30.5C23.3822 30.5 21.5657 30.1363 20.2007 29.5394L19.3993 31.3718ZM18.8144 30.2861L18.033 34.8305L20.0041 35.1695L20.7855 30.625L18.8144 30.2861ZM30.6837 35.9487L36.6837 37.9487L37.3162 36.0513L31.3162 34.0513L30.6837 35.9487ZM36.4567 36.1604L19.4567 47.1604L20.5432 48.8396L37.5432 37.8396L36.4567 36.1604ZM18.7046 34.0506L12.6563 36.0506L13.2842 37.9494L19.3325 35.9494L18.7046 34.0506ZM20.8426 47.4615L13.8129 36.4615L12.1276 37.5385L19.1573 48.5385L20.8426 47.4615ZM-3.05176e-05 47.943V55H1.99997V47.943H-3.05176e-05ZM42.95 24V17H40.95V24H42.95ZM9.04997 24V17H7.04997V24H9.04997ZM36.6835 37.9486C40.1175 39.0944 41.3136 39.3794 43.828 40.7253L44.7719 38.9621C42.0704 37.516 40.6744 37.1718 37.3165 36.0514L36.6835 37.9486ZM43.828 40.7253C45.166 41.4415 46.175 42.1936 46.8676 43.2432C47.5551 44.285 48 45.7265 48 47.943H50C50 45.4549 49.4979 43.5978 48.5369 42.1416C47.5811 40.6932 46.2401 39.748 44.7719 38.9621L43.828 40.7253ZM12.6537 36.0514C9.29115 37.1734 7.92859 37.5165 5.22803 38.9621L6.1719 40.7253C8.68735 39.3788 9.85734 39.0929 13.2868 37.9486L12.6537 36.0514ZM5.22803 38.9621C3.75982 39.748 2.41885 40.6932 1.46303 42.1416C0.502054 43.5978 -3.05176e-05 45.4549 -3.05176e-05 47.943H1.99997C1.99997 45.7265 2.44482 44.285 3.13231 43.2432C3.82495 42.1936 4.83398 41.4415 6.1719 40.7253L5.22803 38.9621ZM19 48V55H21V48H19ZM30.6007 31.3718C33.7701 29.9856 35.6591 27.9041 36.7256 25.3556C37.7711 22.8571 38 19.9697 38 17H36C36 19.9111 35.7664 22.4668 34.8806 24.5835C34.0158 26.6502 32.5048 28.3561 29.7993 29.5394L30.6007 31.3718ZM31 54V55H33V54H31ZM41 55V54H39V55H41ZM38 51H34V53H38V51ZM42.95 17C42.95 7.87297 35.0196 0 25 0V2C33.9893 2 40.95 9.05039 40.95 17H42.95ZM39 16H27V18H39V16ZM27 16C24.2768 16 22.4264 15.1967 21.1414 14.0649C19.8385 12.9173 19.0346 11.3588 18.5529 9.72597C18.0714 8.09421 17.9287 6.44382 17.91 5.18768C17.9007 4.56291 17.9222 4.0437 17.9456 3.68366C17.9573 3.50382 17.9695 3.36422 17.9785 3.27159C17.983 3.22529 17.9867 3.19078 17.9891 3.1689C17.9904 3.15796 17.9913 3.15018 17.9918 3.14567C17.9921 3.14342 17.9922 3.14198 17.9923 3.14138C17.9924 3.14107 17.9924 3.14098 17.9923 3.14109C17.9923 3.14115 17.9923 3.14139 17.9923 3.14142C17.9923 3.14172 17.9922 3.14206 17 3.01787C16.0077 2.89368 16.0077 2.89414 16.0076 2.89465C16.0076 2.89489 16.0075 2.89545 16.0074 2.89593C16.0073 2.89689 16.0072 2.89807 16.007 2.89946C16.0067 2.90224 16.0062 2.90587 16.0057 2.91034C16.0046 2.91927 16.0032 2.93155 16.0015 2.94707C15.998 2.9781 15.9933 3.0221 15.9879 3.07821C15.977 3.1904 15.963 3.35119 15.9498 3.55367C15.9235 3.95828 15.9 4.53142 15.9102 5.21748C15.9306 6.58299 16.0847 8.42813 16.6346 10.2919C17.1841 12.1546 18.1458 14.0916 19.8195 15.5657C21.511 17.0556 23.8481 18 27 18V16ZM18.387 12.3587L7.41846 21.2921L8.68148 22.8429L19.65 13.9094L18.387 12.3587ZM11.9702 18.0601C11.9702 21.4109 12.4563 24.1594 13.6594 26.3773C14.877 28.622 16.7743 30.2237 19.3993 31.3718L20.2007 29.5394C17.9011 28.5336 16.3836 27.2048 15.4174 25.4237C14.4368 23.6159 13.9702 21.2436 13.9702 18.0601H11.9702ZM19 19V20.3846H21V19H19ZM29 19V20.3846H31V19H29ZM20 25C19.4 25.8 19.4003 25.8002 19.4006 25.8004C19.4007 25.8005 19.401 25.8007 19.4012 25.8009C19.4016 25.8012 19.4021 25.8016 19.4026 25.802C19.4036 25.8027 19.4047 25.8035 19.406 25.8045C19.4085 25.8063 19.4115 25.8085 19.415 25.8111C19.422 25.8162 19.431 25.8228 19.4419 25.8306C19.4638 25.8462 19.4936 25.8671 19.5309 25.8924C19.6056 25.943 19.7109 26.0115 19.8448 26.0919C20.1124 26.2524 20.4965 26.4615 20.9811 26.6691C21.9483 27.0837 23.3334 27.5 25 27.5V25.5C23.6666 25.5 22.5517 25.1663 21.7689 24.8309C21.3785 24.6635 21.075 24.4976 20.8738 24.3769C20.7734 24.3166 20.699 24.268 20.6526 24.2365C20.6294 24.2208 20.6133 24.2094 20.6044 24.2031C20.6 24.1999 20.5974 24.198 20.5966 24.1975C20.5962 24.1972 20.5963 24.1973 20.5969 24.1977C20.5972 24.1979 20.5976 24.1982 20.5981 24.1986C20.5983 24.1988 20.5986 24.199 20.5989 24.1992C20.5991 24.1993 20.5993 24.1995 20.5994 24.1996C20.5997 24.1998 20.6 24.2 20 25ZM25 27.5C26.6666 27.5 28.0517 27.0837 29.0189 26.6691C29.5035 26.4615 29.8875 26.2524 30.1551 26.0919C30.289 26.0115 30.3943 25.943 30.469 25.8924C30.5064 25.8671 30.5361 25.8462 30.558 25.8306C30.569 25.8228 30.578 25.8162 30.585 25.8111C30.5885 25.8085 30.5915 25.8063 30.594 25.8045C30.5952 25.8035 30.5963 25.8027 30.5973 25.802C30.5978 25.8016 30.5983 25.8012 30.5987 25.8009C30.599 25.8007 30.5993 25.8005 30.5994 25.8004C30.5997 25.8002 30.6 25.8 30 25C29.4 24.2 29.4002 24.1998 29.4005 24.1996C29.4006 24.1995 29.4008 24.1993 29.401 24.1992C29.4013 24.199 29.4016 24.1988 29.4019 24.1986C29.4024 24.1982 29.4028 24.1979 29.4031 24.1977C29.4036 24.1973 29.4037 24.1972 29.4033 24.1975C29.4026 24.198 29.4 24.1999 29.3955 24.2031C29.3867 24.2094 29.3705 24.2208 29.3473 24.2365C29.3009 24.268 29.2265 24.3166 29.1261 24.3769C28.9249 24.4976 28.6215 24.6635 28.2311 24.8309C27.4483 25.1663 26.3334 25.5 25 25.5V27.5ZM41 54C41 52.3431 39.6568 51 38 51V53C38.5523 53 39 53.4477 39 54H41ZM33 54C33 53.4477 33.4477 53 34 53V51C32.3431 51 31 52.3431 31 54H33Z" fill="url(#paint0_linear_7853_41371)"/>
<defs>
<linearGradient id="paint0_linear_7853_41371" x1="25" y1="0.999341" x2="25" y2="55" gradientUnits="userSpaceOnUse">
<stop stop-color="#00BDD6"/>
<stop offset="1" stop-color="#06A8BD"/>
</linearGradient>
</defs>
   </symbol>
    <symbol fill="none" xmlns="http://www.w3.org/2000/svg" viewBox="0 0 56 56" id="adv-2">
<g clip-path="url(#clip0_7853_41612)">
<path d="M46 7.99998L53.8009 6.69983C54.4929 6.58451 55 5.98584 55 5.28436V5.28436C55 4.55316 54.4502 3.9389 53.7235 3.85815L46 2.99998M46 7.99998V2.99998M46 7.99998V7.99998C46 9.10455 45.1046 9.99998 44 9.99998H42M46 2.99998V2.99998C46 1.89542 45.1046 0.999985 44 0.999985H42M42 0.999985H32.5C30.0147 0.999985 28 3.0147 28 5.49998V5.49998C28 7.98527 30.0147 9.99998 32.5 9.99998H33M42 0.999985V3.99998M42 9.99998V3.99998M42 9.99998H39M42 3.99998H37M34 3.99998H33M39 9.99998V20L37 23M39 9.99998H33M37 23L32.5 18.5M37 23L39 25L35.9444 28.5M33 9.99998V17.5L32.5 18.5M32.5 18.5L31 17L27.5714 20M3 41.5L2.35504 42.0643C0.563811 43.6317 0.529222 46.4069 2.28084 48.0184L8.47857 53.7203C10.1344 55.2436 12.7204 55.1021 14.2001 53.4072L14.5556 53M3 41.5L14.5556 53M3 41.5L7 38M14.5556 53L35.9444 28.5M7 38L8.75038 39.1669C11.1998 40.7999 14.4722 40.4146 16.4753 38.2573L22.6017 31.6597C24.5032 29.6119 24.4584 26.4309 22.5 24.4375V24.4375M7 38L22.5 24.4375M22.5 24.4375L27.5714 20M35.9444 28.5L27.5714 20M15 46L17 43.8333M21 39.5L19 41.6667" stroke="url(#paint0_linear_7853_41612)" stroke-width="2" stroke-linecap="round" stroke-linejoin="round"/>
</g>
<defs>
<linearGradient id="paint0_linear_7853_41612" x1="27" y1="0.999307" x2="27" y2="56.5" gradientUnits="userSpaceOnUse">
<stop stop-color="#00BDD6"/>
<stop offset="1" stop-color="#06A8BD"/>
</linearGradient>
<clipPath id="clip0_7853_41612">
<rect width="56" height="56" fill="white" transform="translate(0 0.000961304)"/>
</clipPath>
</defs>
    </symbol>
     <symbol fill="none" xmlns="http://www.w3.org/2000/svg" viewBox="0 0 48 56" id="adv-3">
          <path d="M47 9.99998V51C47 53.2091 45.2091 55 43 55H5C2.79086 55 1 53.2091 1 51V4.99999C1 2.79085 2.79086 0.999985 5 0.999985H38M47 9.99998L38 0.999985M47 9.99998H40C38.8954 9.99998 38 9.10455 38 7.99998V0.999985" stroke="url(#paint0_linear_7853_35285)" stroke-width="2" stroke-linecap="round" stroke-linejoin="round"/>
<path d="M36.9974 24C37.0147 22.5774 36.9463 21.3931 36.806 20.6007C36.0282 16.2088 34.9296 14.5812 33.3874 13.3015C29.8585 10.3731 26.4699 13.3015 22.0401 13.3015C17.6103 13.3015 14.2683 10.3921 10.7622 13.3015C9.22013 14.5812 8.05232 16.2088 7.27422 20.6007C6.96838 22.327 6.87456 25.7123 7.22137 29.3846C7.90399 36.6127 10.2274 44.7564 16.1338 43.9437C19.7665 43.4439 17.6103 36.7045 22.0401 36.7045C26.4699 36.7045 24.3137 43.4438 27.9465 43.9437C28.313 43.9942 28.664 44.0099 29 43.9932M16 21V22.3846M28 21V22.3846M16 28C16 28 19 30 22 30C25 30 28 28 28 28" stroke="url(#paint1_linear_7853_35285)" stroke-width="2" stroke-linecap="round" stroke-linejoin="round"/>
<path d="M37.5 38V45L36.9142 44.4142C36.1332 43.6332 34.8668 43.6332 34.0858 44.4142L33.5 45V38M30.6165 34.37C29.7945 33.6409 29.7945 32.3591 30.6165 31.63C31.3592 30.9712 31.6744 30.4096 31.8694 29.4641C32.0911 28.3891 33.2034 27.7483 34.247 28.0941C35.1641 28.398 35.8099 28.4067 36.753 28.0941C37.7966 27.7483 38.9089 28.3891 39.1306 29.4641C39.3311 30.4364 39.6615 30.9895 40.3835 31.63C41.2055 32.3591 41.2055 33.6409 40.3835 34.37C39.6408 35.0288 39.3256 35.5904 39.1306 36.5359C38.9089 37.6109 37.7966 38.2517 36.753 37.9059C35.8099 37.5933 35.1641 37.602 34.247 37.9059C33.2034 38.2517 32.0911 37.6109 31.8694 36.5359C31.6689 35.5636 31.3385 35.0105 30.6165 34.37Z" stroke="url(#paint2_linear_7853_35285)" stroke-width="2" stroke-linecap="round" stroke-linejoin="round"/>
<defs>
<linearGradient id="paint0_linear_7853_35285" x1="24" y1="0.999326" x2="24" y2="55" gradientUnits="userSpaceOnUse">
<stop stop-color="#00BDD6"/>
<stop offset="1" stop-color="#06A8BD"/>
</linearGradient>
<linearGradient id="paint1_linear_7853_35285" x1="22" y1="11.9996" x2="22" y2="44" gradientUnits="userSpaceOnUse">
<stop stop-color="#00BDD6"/>
<stop offset="1" stop-color="#06A8BD"/>
</linearGradient>
<linearGradient id="paint2_linear_7853_35285" x1="35.5" y1="27.9998" x2="35.5" y2="45" gradientUnits="userSpaceOnUse">
<stop stop-color="#00BDD6"/>
<stop offset="1" stop-color="#06A8BD"/>
</linearGradient>
</defs>
     </symbol>
      <symbol fill="none" xmlns="http://www.w3.org/2000/svg" viewBox="0 0 56 56" id="adv-4">
          <g clip-path="url(#clip0_7853_17215)">
<path d="M43 2.99998L45.8944 4.4472C46.572 4.78598 47 5.47851 47 6.23605V49.7639C47 50.5215 46.572 51.214 45.8944 51.5528L43 53M43 2.99998V2.99998C43 1.89542 42.1046 0.999985 41 0.999985H15C13.8954 0.999985 13 1.89542 13 2.99998V2.99998M43 2.99998V2.99998C43 3.55227 42.5523 3.99998 42 3.99998H14C13.4477 3.99998 13 3.55227 13 2.99998V2.99998M13 2.99998L10.1056 4.4472C9.428 4.78598 9 5.47851 9 6.23605V49.7639C9 50.5215 9.428 51.214 10.1056 51.5528L13 53M13 53V53C13 54.1046 13.8954 55 15 55H41C42.1046 55 43 54.1046 43 53V53M13 53V53C13 52.4477 13.4477 52 14 52H42C42.5523 52 43 52.4477 43 53V53" stroke="url(#paint0_linear_7853_17215)" stroke-width="2" stroke-linecap="round" stroke-linejoin="round"/>
<path d="M25 42.001V23C25 22 24 21 23 21L21 21M25 42.001L25 45C25 46.5 23.5 48 22 48H20C18.5 48 17 46.5 17 45V42.001M25 42.001L20 42M17 42.001V23C17 22 18 21 19 21L21 21M17 42.001L20 42M21 21V17L17 13L22 7.99998M20 42V40M20 37V32" stroke="url(#paint1_linear_7853_17215)" stroke-width="2" stroke-linecap="round" stroke-linejoin="round"/>
<path d="M31 42.001H39M31 42.001V45C31 46.5 32.5 48 34 48H36C37.7269 48 39 46.5 39 45L39 42.001M31 42.001V23C31 22 32 21 33 21H35M39 42.001V23C39 22 38 21 37 21H36M35 21V16M35 21H36M35 16C37.2091 16 39 14.2091 39 12C39 9.79085 37.2091 7.99998 35 7.99998C32.7909 7.99998 31 9.79085 31 12C31 14.2091 32.7909 16 35 16ZM36 21V23M36 26V33" stroke="url(#paint2_linear_7853_17215)" stroke-width="2" stroke-linecap="round" stroke-linejoin="round"/>
</g>
<defs>
<linearGradient id="paint0_linear_7853_17215" x1="28" y1="0.999326" x2="28" y2="55" gradientUnits="userSpaceOnUse">
<stop stop-color="#00BDD6"/>
<stop offset="1" stop-color="#06A8BD"/>
</linearGradient>
<linearGradient id="paint1_linear_7853_17215" x1="21" y1="7.9995" x2="21" y2="48" gradientUnits="userSpaceOnUse">
<stop stop-color="#00BDD6"/>
<stop offset="1" stop-color="#06A8BD"/>
</linearGradient>
<linearGradient id="paint2_linear_7853_17215" x1="35" y1="7.9995" x2="35" y2="48" gradientUnits="userSpaceOnUse">
<stop stop-color="#00BDD6"/>
<stop offset="1" stop-color="#06A8BD"/>
</linearGradient>
<clipPath id="clip0_7853_17215">
<rect width="56" height="56" fill="white" transform="translate(0 0.000961304)"/>
</clipPath>
</defs>
      </symbol>
</svg>